<svg preserveAspectRatio="none" overflow="visible" style="display: block;" width="145.05" height="30.68" viewBox="0 0 145.05 30.68" fill="none" xmlns="http://www.w3.org/2000/svg">
<g id="Group 1">
<path id="Vector" d="M8.4 29.71C8.05 29.81 7.5 29.9 6.74 30C5.99 30.1 5.24 30.14 4.51 30.14C3.78 30.14 3.13 30.08 2.57 29.97C2.01 29.86 1.54 29.66 1.15 29.37C0.77 29.08 0.48 28.68 0.29 28.17C0.1 27.66 0 26.99 0 26.15V3.55C0 2.88 0.18 2.36 0.55 1.99C0.92 1.62 1.42 1.33 2.06 1.1C3.15 0.72 4.39 0.44 5.78 0.26C7.17 0.08 8.57 0 9.98 0C14.4 0 17.77 0.94 20.11 2.83C22.45 4.72 23.61 7.28 23.61 10.51C23.61 12.08 23.36 13.49 22.87 14.76C22.37 16.02 21.64 17.11 20.66 18.02C19.68 18.93 18.45 19.64 16.96 20.13C15.47 20.63 13.75 20.87 11.8 20.87H8.39V29.7L8.4 29.71ZM10.9 14.3C12.24 14.3 13.28 13.99 14 13.36C14.72 12.74 15.08 11.78 15.08 10.5C15.08 9.22 14.7 8.35 13.95 7.69C13.2 7.03 12.1 6.71 10.66 6.71C10.15 6.71 9.72 6.71 9.39 6.73C9.05 6.75 8.71 6.79 8.36 6.85V14.29H10.9V14.3Z" fill="white"/>
<path id="Vector_2" d="M32.6399 1.68C33.1799 1.36 34.0099 1.06 35.1099 0.769996C36.2099 0.479996 37.3299 0.339996 38.4499 0.339996C40.0499 0.339996 41.4699 0.569996 42.6999 1.04C43.9299 1.5 44.7199 2.23 45.0799 3.22C45.6599 4.88 46.2799 6.82 46.9499 9.03C47.6199 11.24 48.2899 13.52 48.9699 15.87C49.6399 18.22 50.2999 20.54 50.9399 22.83C51.5799 25.12 52.1399 27.14 52.6199 28.9C52.2399 29.35 51.6599 29.71 50.8899 29.98C50.1199 30.25 49.2099 30.39 48.1499 30.39C47.3799 30.39 46.7299 30.33 46.2099 30.2C45.6799 30.07 45.2499 29.88 44.9099 29.62C44.5699 29.36 44.2999 29.03 44.0899 28.61C43.8799 28.19 43.6999 27.71 43.5399 27.17L42.6799 23.86H33.9899C33.7299 24.82 33.4799 25.81 33.2199 26.84C32.9599 27.86 32.7099 28.86 32.4499 29.82C31.9999 29.98 31.5299 30.12 31.0299 30.23C30.5299 30.34 29.9299 30.4 29.2299 30.4C27.5999 30.4 26.3899 30.12 25.6099 29.56C24.8299 29 24.4299 28.22 24.4299 27.23C24.4299 26.78 24.4899 26.33 24.6199 25.89C24.7499 25.44 24.8899 24.91 25.0499 24.31C25.2699 23.45 25.5899 22.37 25.9899 21.09C26.3899 19.81 26.8299 18.43 27.3099 16.94C27.7899 15.45 28.2999 13.92 28.8499 12.36C29.3899 10.79 29.9099 9.31 30.3899 7.92C30.8699 6.53 31.3099 5.29 31.7099 4.2C32.1099 3.11 32.4199 2.28 32.6499 1.7L32.6399 1.68ZM38.3999 7.87C37.9499 9.21 37.4499 10.71 36.8899 12.36C36.3299 14.01 35.8299 15.68 35.3799 17.38H41.3299C40.8799 15.65 40.4299 13.96 39.9599 12.32C39.4999 10.67 39.0699 9.19 38.6899 7.88H38.3999V7.87Z" fill="white"/>
<path id="Vector_3" d="M74 18.56C74.43 18.29 74.96 19.13 76.27 19.12C77.16 19.12 78.14 18.72 78.74 18C79.59 16.99 79.33 15.74 79.6 15.72C79.89 15.7 80.23 17.19 80.76 19.44C81.09 20.82 81.37 21.94 81.55 22.66H81.79C82.08 20.71 82.33 18.84 82.56 17.07C82.78 15.29 82.99 13.55 83.18 11.84C83.37 10.13 83.56 8.43 83.76 6.75C83.95 5.07 84.14 3.37 84.34 1.64C85.52 0.970005 86.79 0.630005 88.13 0.630005C89.31 0.630005 90.34 0.890005 91.2 1.4C92.06 1.91 92.5 2.78 92.5 3.99001C92.5 4.69001 92.43 5.69 92.28 6.99C92.14 8.29 91.94 9.73 91.7 11.33C91.46 12.93 91.18 14.61 90.86 16.37C90.54 18.13 90.2 19.81 89.85 21.41C89.5 23.01 89.14 24.46 88.77 25.75C88.4 27.05 88.06 28.05 87.74 28.75C87.26 29.2 86.48 29.57 85.39 29.85C84.3 30.14 83.18 30.28 82.03 30.28C80.53 30.28 79.25 30.08 78.21 29.68C77.14 29.27 76.63 28.39 76.31 27.98C75.53 26.95 75.39 26.15 74.75 23.48C73.89 19.93 73.55 18.85 74 18.56Z" fill="white"/>
<path id="Vector_4" d="M72.92 18.62C73.31 18.85 73.22 19.71 72.12 23.85C71.35 26.75 71.03 27.7 70.11 28.64C69.35 29.41 68.57 29.77 68.36 29.86C67.35 30.3 66.52 30.29 65.19 30.29C63.75 30.29 62.45 30.09 61.28 29.69C60.11 29.29 59.35 28.72 59 27.99C58.71 27.41 58.4 26.56 58.06 25.42C57.72 24.28 57.38 22.99 57.03 21.53C56.68 20.07 56.32 18.5 55.95 16.8C55.58 15.1 55.25 13.41 54.94 11.71C54.64 10.01 54.36 8.36 54.1 6.74C53.84 5.11999 53.65 3.64 53.52 2.3C53.97 1.88 54.59 1.5 55.39 1.15C56.19 0.799995 57.05 0.619995 57.98 0.619995C59.2 0.619995 60.2 0.879995 60.98 1.41C61.76 1.94 62.25 2.83 62.44 4.07C62.95 7.33 63.38 10.05 63.71 12.23C64.05 14.41 64.32 16.19 64.53 17.58C64.74 18.97 64.89 20.05 64.99 20.82C65.09 21.59 65.18 22.2 65.28 22.64H65.52C65.73 21.82 66.03 20.6 66.34 19.09C66.69 17.34 66.87 16.05 67.2 16.04C67.56 16.03 67.42 17.63 68.58 18.48C69.56 19.2 70.98 19.03 71.22 19C72.3 18.86 72.59 18.41 72.91 18.6L72.92 18.62Z" fill="white"/>
<path id="Vector_5" d="M105.5 18.34C104.09 17.86 102.81 17.37 101.66 16.88C100.51 16.38 99.52 15.78 98.68 15.08C97.85 14.38 97.2 13.54 96.74 12.56C96.28 11.58 96.04 10.39 96.04 8.98C96.04 6.26 97.09 4.08 99.18 2.45C101.27 0.82 104.21 0 107.99 0C109.37 0 110.65 0.1 111.83 0.29C113.01 0.48 114.03 0.78 114.88 1.18C115.73 1.58 116.39 2.09 116.87 2.72C117.35 3.34 117.59 4.07 117.59 4.9C117.59 5.73 117.4 6.44 117.01 7.04C116.63 7.63 116.16 8.14 115.62 8.55C114.92 8.1 113.97 7.71 112.79 7.37C111.61 7.03 110.31 6.87 108.9 6.87C107.49 6.87 106.4 7.07 105.73 7.47C105.06 7.87 104.72 8.37 104.72 8.98C104.72 9.46 104.93 9.85 105.34 10.16C105.76 10.46 106.38 10.74 107.21 11L109.75 11.82C112.76 12.78 115.07 14 116.69 15.49C118.31 16.98 119.11 19 119.11 21.56C119.11 24.28 118.04 26.48 115.89 28.16C113.75 29.84 110.59 30.68 106.43 30.68C104.96 30.68 103.59 30.56 102.33 30.32C101.07 30.08 99.96 29.73 99.02 29.26C98.08 28.8 97.34 28.22 96.81 27.53C96.28 26.84 96.02 26.05 96.02 25.15C96.02 24.25 96.29 23.43 96.84 22.77C97.38 22.11 97.98 21.61 98.62 21.26C99.52 21.96 100.61 22.57 101.91 23.08C103.21 23.59 104.62 23.85 106.16 23.85C107.7 23.85 108.83 23.61 109.47 23.13C110.11 22.65 110.43 22.09 110.43 21.45C110.43 20.81 110.17 20.32 109.66 19.99C109.15 19.66 108.43 19.33 107.5 19.01L105.48 18.34H105.5Z" fill="white"/>
<path id="Vector_6" d="M123.7 5.28001C123.7 3.90001 124.1 2.82001 124.9 2.02001C125.7 1.22001 126.79 0.820007 128.16 0.820007H144C144.22 1.17001 144.42 1.64001 144.6 2.21001C144.77 2.79001 144.86 3.39001 144.86 4.03001C144.86 5.25001 144.6 6.11001 144.07 6.62001C143.54 7.13001 142.85 7.39001 141.98 7.39001H131.85V11.85H142.65C142.87 12.2 143.07 12.66 143.25 13.22C143.43 13.78 143.51 14.38 143.51 15.02C143.51 16.24 143.25 17.1 142.74 17.61C142.23 18.12 141.54 18.38 140.68 18.38H131.85V23.42H144.19C144.41 23.77 144.61 24.24 144.79 24.81C144.97 25.39 145.05 25.99 145.05 26.63C145.05 27.85 144.79 28.72 144.26 29.25C143.73 29.78 143.04 30.04 142.17 30.04H128.15C126.77 30.04 125.69 29.64 124.89 28.84C124.09 28.04 123.69 26.95 123.69 25.58V5.28001H123.7Z" fill="#1B5DF1"/>
<g id="Group">
<path id="Vector_7" d="M70.3901 10.05C70.9101 10.31 71.4901 10.27 71.9501 9.94999C73.2801 9.03999 73.2601 6.48999 71.8501 5.40999C71.1901 4.89999 70.3601 4.90999 69.7501 5.47999C68.4701 6.67999 68.8501 9.29999 70.3801 10.05H70.3901ZM76.5701 9.94999C77.0101 9.65999 77.3201 9.25999 77.5201 8.77999C77.6801 8.40999 77.7501 8.02999 77.7901 7.62999V7.28999C77.7501 6.73999 77.6001 6.21999 77.2801 5.77999L77.0801 5.54999C76.8201 5.25999 76.4501 5.07999 76.0401 5.05999C75.5001 5.02999 75.0101 5.27999 74.6401 5.67999C74.2601 6.08999 74.0201 6.59999 73.9101 7.14999L73.8601 7.53999C73.7901 8.33999 74.0001 9.16999 74.5601 9.74999C75.1201 10.33 75.9101 10.4 76.5701 9.96999V9.94999ZM69.3901 11.99C69.4201 11.74 69.4301 11.47 69.3901 11.22C69.2901 10.55 68.9701 9.93999 68.4601 9.49999C67.7801 8.89999 66.8401 8.78999 66.2501 9.47999C65.9901 9.78999 65.8601 10.16 65.8301 10.57C65.7801 11.32 66.0401 12.06 66.5301 12.63C66.8701 13.02 67.3101 13.3 67.8301 13.36C68.6601 13.45 69.2901 12.76 69.3801 11.99H69.3901ZM79.1701 13.32C80.7001 12.89 81.4501 10.65 80.5401 9.51999L80.3001 9.27999C79.9101 8.97999 79.4101 8.92999 78.9401 9.10999C78.0801 9.43999 77.4901 10.34 77.3701 11.25C77.3401 11.49 77.3401 11.74 77.3701 11.98C77.4001 12.22 77.4801 12.45 77.6001 12.66C77.9101 13.22 78.5401 13.51 79.1701 13.33V13.32ZM74.4201 17.67C74.9401 18 75.6501 18.3 76.2501 18.25C76.7701 18.21 77.2601 18.03 77.6501 17.68C78.2401 17.15 78.5401 16.38 78.3801 15.6C78.2501 14.96 77.9801 14.4 77.6301 13.85C76.8801 12.68 75.8501 11.63 74.8301 10.69C74.0401 9.96999 72.8601 9.92999 72.0601 10.6C71.7501 10.86 71.4901 11.12 71.2001 11.4C70.2501 12.34 69.2301 13.48 68.6801 14.7C68.5501 14.99 68.4601 15.28 68.4001 15.6C68.1401 16.91 69.1501 18.18 70.5201 18.25C70.9401 18.27 71.3501 18.16 71.7301 18C72.0701 17.86 72.3501 17.66 72.6601 17.47C73.0901 17.21 73.6601 17.19 74.0801 17.46L74.4101 17.67H74.4201Z" fill="white"/>
<path id="Vector_8" d="M74.4201 17.67L74.0901 17.46C73.6701 17.19 73.1001 17.21 72.6701 17.47C72.3601 17.66 72.0701 17.86 71.7401 18C71.3501 18.17 70.9501 18.28 70.5301 18.25C69.1501 18.17 68.1501 16.91 68.4101 15.6C68.4701 15.29 68.5601 15 68.6901 14.7C69.2401 13.48 70.2501 12.33 71.2101 11.4C71.5001 11.12 71.7601 10.85 72.0701 10.6C72.8801 9.92999 74.0601 9.96999 74.8401 10.69C75.8701 11.63 76.9001 12.68 77.6401 13.85C77.9901 14.4 78.2601 14.96 78.3901 15.6C78.5501 16.38 78.2501 17.15 77.6601 17.68C77.2701 18.03 76.7901 18.21 76.2601 18.25C75.6601 18.29 74.9601 18 74.4301 17.67H74.4201Z" fill="white"/>
<g id="Group_2">
<path id="Vector_9" d="M76.5701 9.94999C75.9101 10.38 75.1001 10.28 74.5601 9.72999C74.0201 9.17999 73.7901 8.31999 73.8601 7.51999L73.9101 7.12999C74.0201 6.57999 74.2601 6.06999 74.6401 5.65999C75.0201 5.24999 75.5001 5.00999 76.0401 5.03999C76.4501 5.06999 76.8201 5.23999 77.0801 5.52999L77.2801 5.75999C77.6001 6.19999 77.7501 6.72999 77.7901 7.26999V7.60999C77.7601 8.00999 77.6901 8.38999 77.5301 8.75999C77.3201 9.22999 77.0201 9.63999 76.5801 9.92999L76.5701 9.94999Z" fill="white"/>
<path id="Vector_10" d="M70.3901 10.05C68.8601 9.29999 68.4801 6.67999 69.7601 5.47999C70.3701 4.90999 71.2001 4.89999 71.8601 5.40999C73.2601 6.48999 73.2901 9.03999 71.9601 9.94999C71.4901 10.27 70.9201 10.31 70.4001 10.05H70.3901Z" fill="white"/>
<g id="Group_3">
<path id="Vector_11" d="M79.1701 13.32C78.5301 13.5 77.9001 13.21 77.6001 12.65C77.4901 12.44 77.4001 12.22 77.3701 11.97C77.3401 11.72 77.3401 11.48 77.3701 11.24C77.4901 10.34 78.0801 9.43999 78.9401 9.09999C79.4001 8.91999 79.9001 8.96999 80.3001 9.26999L80.5401 9.50999C81.4501 10.65 80.7101 12.88 79.1701 13.31V13.32Z" fill="white"/>
<path id="Vector_12" d="M69.3901 11.99C69.3001 12.77 68.6701 13.45 67.8401 13.36C67.3201 13.3 66.8801 13.02 66.5401 12.63C66.0501 12.06 65.7901 11.32 65.8401 10.57C65.8701 10.16 66.0001 9.77999 66.2601 9.47999C66.8501 8.78999 67.7801 8.89999 68.4701 9.49999C68.9701 9.93999 69.2901 10.55 69.4001 11.22C69.4401 11.47 69.4301 11.74 69.4001 11.99H69.3901Z" fill="white"/>
</g>
</g>
</g>
</g>
</svg>
